<svg id="Layer_1" data-name="Layer 1" xmlns="http://www.w3.org/2000/svg" viewBox="0 0 437.5 186.19"><defs><style>.cls-1{fill:#163049;}</style></defs><path class="cls-1" d="M258.07,68.41c-2.63-2.13-5-4.33-7.65-6.13A56,56,0,0,0,214,52.46a15.68,15.68,0,0,0-8.84,3c-5.07,4-4.68,9.86,1.14,12.59a87.59,87.59,0,0,0,12.62,4.39c9.38,2.73,18.91,5,28.19,8a46.44,46.44,0,0,1,20.47,13c6,6.72,8.83,14.77,9.37,23.65.66,11-1.37,21.39-8.36,30.33-6.25,8-14.62,12.86-24.28,15.17-21.79,5.21-43,3.7-63.05-7a77.53,77.53,0,0,1-18.42-14.06c-.65-.65-.85-1.14-.26-2Q170.83,128,179,116.43a6.42,6.42,0,0,1,.81-.67c.56.71,1.08,1.49,1.72,2.16,11.3,11.92,25.13,18.25,41.6,18.46,5.32.07,10.67-.44,15.29-3.47a14.34,14.34,0,0,0,4.4-4.3c2.54-4.17,1-8.55-3.9-10.86a87.35,87.35,0,0,0-12.39-4.52c-9.61-2.79-19.39-5-28.91-8.1a43.83,43.83,0,0,1-20.74-13.49c-7-8.34-9.1-18.19-8.54-28.77,1-18.32,14.28-31.61,31.82-36.87,9.57-2.87,19.34-3.34,29.22-2.46,12.34,1.11,24,4.44,34.52,11.16,4.1,2.62,7.8,5.87,11.68,8.83.71.54,1,1.06.32,1.92q-8.78,11.31-17.48,22.66A2.55,2.55,0,0,1,258.07,68.41Z"/><path class="cls-1" d="M68.8,132.8c3.37,0,6.34,0,9.3,0,15.07-.2,26.62-6.56,34.37-19.2,11.33-18.51,3.58-43.68-16.18-53.26a42.64,42.64,0,0,0-19-4.25c-14.36,0-28.71,0-43.07,0a2.82,2.82,0,0,1-3-1.88c-4.46-9.57-9-19.1-13.52-28.65-.31-.66-.59-1.33-1-2.24.76-.07,1.29-.17,1.82-.17,20.36,0,40.73-.14,61.1,0A72.86,72.86,0,0,1,146.71,69c16.56,42.07-11,88.92-56.44,96.05-5.85.92-5.85.92-8.32-4.29L69.75,135C69.47,134.39,69.22,133.77,68.8,132.8Z"/><path class="cls-1" d="M296.59,108.42h-2.25L294,79.09h2.62q54.78.12,109.54.08c4.71,0,4.69,0,4.69,2.55,0,8.17-.11,16.33.05,24.51,0,1.7-.81,2.22-4.1,2.22Q351.69,108.36,296.59,108.42Z"/><path class="cls-1" d="M297.55,52.84h-3.22L294,23.16q56.64,0,113.29,0c3,0,3.61.56,3.59,2.07-.1,8.41-.13,16.81,0,25.22,0,1.72-1,2.08-3.93,2.07C370.5,52.46,334,52.47,297.55,52.84Z"/><path class="cls-1" d="M410.91,163.52c0,1.56-.71,2-3.68,2q-56.43,0-112.9,0L294,136.36h1.7q55.44-.12,110.88-.07c4.24,0,4.25,0,4.25,2.36C410.84,147,410.77,155.23,410.91,163.52Z"/></svg>