<?xml version="1.0" encoding="utf-8"?>
<!-- Generator: Adobe Illustrator 24.3.0, SVG Export Plug-In . SVG Version: 6.00 Build 0)  -->
<svg version="1.1" id="Layer_1" xmlns="http://www.w3.org/2000/svg" xmlns:xlink="http://www.w3.org/1999/xlink" x="0px" y="0px"
	 viewBox="0 0 437.5 186.2" style="enable-background:new 0 0 437.5 186.2;" xml:space="preserve">
<style type="text/css">
	.st0{fill:#D9E0E6;}
</style>
<path class="st0" d="M258.1,68.4c-2.6-2.1-5-4.3-7.6-6.1c-10.6-7.4-23.5-10.9-36.4-9.8c-3.2,0.1-6.3,1.1-8.8,3
	c-5.1,4-4.7,9.9,1.1,12.6c4.1,1.8,8.3,3.3,12.6,4.4c9.4,2.7,18.9,5,28.2,8c7.9,2.4,14.9,6.9,20.5,13c6,6.7,8.8,14.8,9.4,23.7
	c0.7,11-1.4,21.4-8.4,30.3c-6.2,8-14.6,12.9-24.3,15.2c-21.8,5.2-43,3.7-63.1-7c-6.8-3.7-13-8.5-18.4-14.1c-0.6-0.6-0.9-1.1-0.3-2
	c5.5-7.7,11-15.4,16.4-23.1c0.3-0.2,0.5-0.5,0.8-0.7c0.6,0.7,1.1,1.5,1.7,2.2c11.3,11.9,25.1,18.3,41.6,18.5
	c5.3,0.1,10.7-0.4,15.3-3.5c1.8-1.1,3.3-2.6,4.4-4.3c2.5-4.2,1-8.6-3.9-10.9c-4-1.8-8.2-3.3-12.4-4.5c-9.6-2.8-19.4-5-28.9-8.1
	c-8.1-2.4-15.3-7.1-20.7-13.5c-7-8.3-9.1-18.2-8.5-28.8c1-18.3,14.3-31.6,31.8-36.9c9.6-2.9,19.3-3.3,29.2-2.5
	c12.3,1.1,24,4.4,34.5,11.2c4.1,2.6,7.8,5.9,11.7,8.8c0.7,0.5,1,1.1,0.3,1.9c-5.9,7.5-11.7,15.1-17.5,22.7
	C258.3,68.2,258.2,68.3,258.1,68.4z"/>
<path class="st0" d="M68.8,132.8c3.4,0,6.3,0,9.3,0c15.1-0.2,26.6-6.6,34.4-19.2c11.3-18.5,3.6-43.7-16.2-53.3
	c-5.9-2.9-12.4-4.3-19-4.2c-14.4,0-28.7,0-43.1,0c-1.3,0.2-2.6-0.6-3-1.9c-4.5-9.6-9-19.1-13.5-28.6c-0.3-0.7-0.6-1.3-1-2.2
	c0.8-0.1,1.3-0.2,1.8-0.2c20.4,0,40.7-0.1,61.1,0c29.6,0.2,56.1,18.4,67.1,45.8c16.6,42.1-11,88.9-56.4,96.1
	c-5.8,0.9-5.8,0.9-8.3-4.3L69.8,135C69.5,134.4,69.2,133.8,68.8,132.8z"/>
<path class="st0" d="M296.6,108.4h-2.2L294,79.1h2.6c36.5,0.1,73,0.1,109.5,0.1c4.7,0,4.7,0,4.7,2.6c0,8.2-0.1,16.3,0,24.5
	c0,1.7-0.8,2.2-4.1,2.2C370.1,108.4,333.3,108.4,296.6,108.4z"/>
<path class="st0" d="M297.5,52.8h-3.2L294,23.2c37.8,0,75.5,0,113.3,0c3,0,3.6,0.6,3.6,2.1c-0.1,8.4-0.1,16.8,0,25.2
	c0,1.7-1,2.1-3.9,2.1C370.5,52.5,334,52.5,297.5,52.8z"/>
<path class="st0" d="M410.9,163.5c0,1.6-0.7,2-3.7,2c-37.6,0-75.3,0-112.9,0l-0.3-29.2h1.7c37-0.1,73.9-0.1,110.9-0.1
	c4.2,0,4.2,0,4.2,2.4C410.8,147,410.8,155.2,410.9,163.5z"/>
</svg>
